<svg width="24" height="24" viewBox="0 0 24 24" fill="none" xmlns="http://www.w3.org/2000/svg">
<path d="M7.78651 12.5868H9.7395V20.7097C9.7395 20.8701 9.86813 21 10.0269 21H13.3382C13.497 21 13.6256 20.8701 13.6256 20.7097V12.6251H15.8707C16.0167 12.6251 16.1395 12.5144 16.1562 12.3679L16.4991 9.32472C16.5085 9.24245 16.4827 9.16005 16.4282 9.09833C16.3737 9.03655 16.2956 9.00119 16.2137 9.00119L13.4991 9L13.6257 7.17937C13.6257 6.61428 13.9269 6.32774 14.5209 6.32774C14.6056 6.32774 16.2118 6.32774 16.2118 6.32774C16.3705 6.32774 16.4991 6.19773 16.4991 6.03741V3.29247C16.4991 3.1321 16.3705 3.00215 16.2118 3.00215H13.8815C13.8651 3.00134 13.8286 3 13.7748 3C13.3705 3 11.9651 3.08019 10.8549 4.11199C9.6249 5.2554 9.74915 6.75 9.74915 6.75V9L7.78651 9.05386C7.62777 9.05386 7.49915 9.18381 7.49915 9.34419V12.2964C7.49915 12.4568 7.62777 12.5868 7.78651 12.5868Z" fill="#323232"/>
</svg>
