<?xml version="1.0" encoding="utf-8"?>
<!-- Generator: Adobe Illustrator 23.0.3, SVG Export Plug-In . SVG Version: 6.00 Build 0)  -->
<svg version="1.1" id="Layer_1" xmlns="http://www.w3.org/2000/svg" xmlns:xlink="http://www.w3.org/1999/xlink" x="0px" y="0px"
	 viewBox="0 0 182.8 145.7" style="enable-background:new 0 0 182.8 145.7;" xml:space="preserve">
<style type="text/css">
	.st0{fill:#FFFFFF;}
</style>
<g>
	<path class="st0" d="M65.8,0h15v13.9h24.6V0h15v39.4h-15v-15H80.8v15h-15V0z"/>
	<path class="st0" d="M90.5,145.7c-21.7,0-24-8.8-24-14v-0.5H83c0.2,2.1,1.3,5.6,9.8,5.6h0.5c8.4,0,9.6-1.8,9.6-3.7V133
		c0-2-1-3.3-9.3-3.5l-7.3-0.2c-15.2-0.4-19.3-5.8-19.3-11.9v-0.5c0-6.4,4.3-12,22.6-12h4.7c19.5,0,23.9,6.2,23.9,12.4v0.4H102
		c-0.2-1.4-1-4.2-9.5-4.2h-0.5c-7.9,0-8.7,1.4-8.7,2.9v0.1c0,1.6,1.2,2.9,8.6,3l7.1,0.2c15,0.4,20.8,3.9,20.8,11.9v0.7
		c0,6.6-3.7,13.4-24.4,13.4H90.5z"/>
	<path class="st0" d="M0,52.8h15v13.9h24.6V52.8h15v39.4h-15v-15H15v15H0V52.8z"/>
	<path class="st0" d="M103.7,85.8H81.2l-3,6.3H62.9l19.5-39.4h20.2l20.6,39.4h-16.5L103.7,85.8z M92.3,62.4L85.8,76h13.1L92.3,62.4z
		"/>
	<path class="st0" d="M153.6,92.9c-21.7,0-24-8.8-24-14v-0.5h16.5c0.2,2.1,1.3,5.6,9.8,5.6h0.5c8.4,0,9.6-1.8,9.6-3.7v-0.1
		c0-2-1-3.3-9.3-3.5l-7.3-0.2c-15.2-0.4-19.3-5.8-19.3-11.9v-0.5c0-6.4,4.3-12,22.6-12h4.7c19.5,0,23.9,6.2,23.9,12.4v0.4h-16.3
		c-0.2-1.4-1-4.2-9.5-4.2H155c-7.9,0-8.7,1.4-8.7,2.9v0.1c0,1.6,1.2,2.9,8.6,3l7.1,0.2c15,0.4,20.8,3.9,20.8,11.9v0.7
		c0,6.6-3.7,13.4-24.4,13.4H153.6z"/>
</g>
</svg>
