<svg id="logo" viewBox="0 0 48 48" fill="none" xmlns="http://www.w3.org/2000/svg">
<path d="M27.5324 0H31.5641V14.6384H27.5324V8.86669H21.0859V14.6384H17.0543V0H21.0859V5.49986H27.5324V0Z" fill="#434343"/>
<path d="M10.4782 16.5553H14.5098V31.1937H10.4782V25.422H4.03163V31.1937H0V16.5553H4.03163V22.0552H10.4782V16.5553Z" fill="#434343"/>
<path d="M28.9111 31.1937L27.9287 28.266H21.4004L20.418 31.1937H16.4683L21.7073 16.5553H27.7446L33.0041 31.1937H28.9111ZM22.4441 25.1711H26.885L24.6748 18.5838L22.4441 25.1711Z" fill="#434343"/>
<path d="M21.3612 42.5629C21.5522 44.1104 22.7255 44.8841 24.8812 44.8841C25.6725 44.8841 26.3547 44.7935 26.9277 44.6123C27.5007 44.4171 27.7873 44.1173 27.7873 43.713C27.7873 43.4203 27.6372 43.1902 27.337 43.0229C27.0505 42.8417 26.5525 42.6465 25.8431 42.4374L21.7705 41.3082C19.3965 40.639 18.2096 39.3006 18.2096 37.2931C18.2096 36.2753 18.5097 35.4249 19.11 34.7418C19.7103 34.0587 20.4607 33.5777 21.3612 33.2989C22.2753 33.0061 23.3054 32.8597 24.4514 32.8597C26.3479 32.8597 27.9169 33.2849 29.1584 34.1353C30.4136 34.9858 31.1094 36.1917 31.2459 37.7531L27.4598 37.9413C27.3779 37.3837 27.0914 36.9166 26.6003 36.5402C26.1091 36.1638 25.3587 35.9756 24.3491 35.9756C23.6806 35.9756 23.1553 36.0732 22.7733 36.2684C22.4049 36.4496 22.2207 36.6936 22.2207 37.0003C22.2207 37.2652 22.3503 37.4882 22.6096 37.6695C22.8688 37.8368 23.2781 37.9971 23.8375 38.1505L27.7259 39.2379C29.0766 39.6143 30.093 40.1162 30.7752 40.7435C31.4573 41.3709 31.7984 42.2492 31.7984 43.3784C31.7984 44.9399 31.1708 46.104 29.9156 46.8708C28.6741 47.6236 26.9823 48 24.8403 48C20.2151 48 17.8003 46.2295 17.5956 42.6884L21.3612 42.5629Z" fill="#434343"/>
<path d="M37.5628 26.0076C37.7538 27.555 38.9271 28.3288 41.0828 28.3288C41.8741 28.3288 42.5563 28.2382 43.1293 28.0569C43.7023 27.8617 43.9888 27.562 43.9888 27.1577C43.9888 26.8649 43.8388 26.6349 43.5386 26.4676C43.2521 26.2864 42.7541 26.0912 42.0446 25.8821L37.9721 24.7528C35.5981 24.0836 34.4111 22.7453 34.4111 20.7377C34.4111 19.72 34.7113 18.8696 35.3116 18.1865C35.9119 17.5033 36.6623 17.0224 37.5628 16.7435C38.4769 16.4508 39.507 16.3044 40.653 16.3044C42.5494 16.3044 44.1184 16.7296 45.36 17.58C46.6152 18.4304 47.311 19.6364 47.4474 21.1978L43.6614 21.386C43.5795 20.8283 43.293 20.3613 42.8018 19.9849C42.3107 19.6085 41.5603 19.4203 40.5507 19.4203C39.8822 19.4203 39.3569 19.5179 38.9749 19.713C38.6065 19.8943 38.4223 20.1383 38.4223 20.445C38.4223 20.7098 38.5519 20.9329 38.8111 21.1141C39.0704 21.2814 39.4797 21.4418 40.0391 21.5951L43.9274 22.6825C45.2781 23.059 46.2946 23.5608 46.9767 24.1882C47.6589 24.8156 48 25.6939 48 26.8231C48 28.3845 47.3724 29.5486 46.1172 30.3154C44.8757 31.0683 43.1839 31.4447 41.0418 31.4447C36.4167 31.4447 34.0018 29.6741 33.7972 26.133L37.5628 26.0076Z" fill="#434343"/>
</svg>
