<svg width="24" height="24" viewBox="0 0 24 24" fill="none" xmlns="http://www.w3.org/2000/svg">
<path d="M19.4654 4.63242C19.4654 4.63242 21.1306 3.98314 20.9918 5.55998C20.9455 6.20927 20.5293 8.48177 20.2055 10.9398L19.0954 18.2211C19.0954 18.2211 19.0029 19.2878 18.1703 19.4733C17.3377 19.6588 16.0889 18.824 15.8576 18.6385C15.6726 18.4994 12.3886 16.4124 11.2323 15.3921C10.9085 15.1138 10.5384 14.5573 11.2785 13.908L16.1352 9.27022C16.6902 8.71367 17.2453 7.4151 14.9326 8.99195L8.45705 13.3978C8.45705 13.3978 7.71699 13.8616 6.3294 13.4442L3.32289 12.5166C3.32289 12.5166 2.2128 11.821 4.10921 11.1253C8.73459 8.94553 14.4238 6.7194 19.4654 4.63242Z" fill="#323232"/>
</svg>
