<svg width="24" height="24" viewBox="0 0 24 24" fill="none" xmlns="http://www.w3.org/2000/svg">
<path d="M20.5921 6.23111C20.3093 6.35876 20.0186 6.4665 19.7215 6.55397C20.0732 6.14913 20.3413 5.67279 20.505 5.15152C20.5417 5.03468 20.5037 4.90679 20.4093 4.83037C20.3151 4.75389 20.1841 4.74473 20.0804 4.80732C19.4495 5.18816 18.7689 5.46186 18.0552 5.6219C17.3363 4.90691 16.3599 4.5 15.3505 4.5C13.2199 4.5 11.4864 6.26432 11.4864 8.43294C11.4864 8.60374 11.497 8.7736 11.518 8.94109C8.87409 8.70481 6.41605 7.38208 4.72812 5.27463C4.66797 5.19951 4.5753 5.15903 4.48042 5.16677C4.38549 5.17433 4.30019 5.22882 4.25223 5.31257C3.90988 5.91049 3.72889 6.59434 3.72889 7.29012C3.72889 8.2378 4.06131 9.13695 4.64852 9.83953C4.46997 9.77659 4.2967 9.69793 4.13134 9.60449C4.04256 9.55419 3.93421 9.55496 3.84601 9.60644C3.75775 9.65792 3.70242 9.75259 3.70009 9.85608C3.69969 9.87351 3.69969 9.89095 3.69969 9.90862C3.69969 11.3232 4.44767 12.5967 5.59125 13.2909C5.493 13.2809 5.39482 13.2664 5.29727 13.2474C5.1967 13.2279 5.09329 13.2637 5.02547 13.3418C4.95754 13.4198 4.93506 13.5286 4.96636 13.6279C5.38965 14.973 6.47946 15.9624 7.79694 16.264C6.70423 16.9606 5.45462 17.3255 4.14283 17.3255C3.86912 17.3255 3.59384 17.3092 3.32442 17.2767C3.19058 17.2605 3.06261 17.3409 3.01703 17.4705C2.97144 17.6001 3.01975 17.7446 3.13362 17.8189C4.81882 18.9187 6.7674 19.5 8.76859 19.5C12.7027 19.5 15.1637 17.6117 16.5355 16.0277C18.2461 14.0525 19.2271 11.4381 19.2271 8.85486C19.2271 8.74694 19.2255 8.63796 19.2223 8.52934C19.8971 8.0118 20.4782 7.38545 20.951 6.66555C21.0228 6.55622 21.0151 6.41172 20.9318 6.31107C20.8488 6.21036 20.7103 6.1778 20.5921 6.23111Z" fill="#323232"/>
</svg>
