<svg width="24" height="24" viewBox="0 0 24 24" fill="none" xmlns="http://www.w3.org/2000/svg">
<path d="M19.0219 14.3346C19.0219 14.3346 20.4772 15.6963 20.8372 16.3265C20.8442 16.3356 20.8497 16.3457 20.8534 16.3563C21.0001 16.5891 21.0361 16.7716 20.9641 16.9064C20.8426 17.1289 20.4313 17.2406 20.2918 17.25H17.7196C17.5405 17.25 17.1679 17.2057 16.7143 16.9089C16.3678 16.6795 16.0231 16.3018 15.6892 15.9325C15.1906 15.3842 14.7595 14.9084 14.323 14.9084C14.2679 14.9083 14.2131 14.917 14.161 14.934C13.8307 15.0329 13.4113 15.4789 13.4113 16.6667C13.4113 17.0385 13.1017 17.25 12.8848 17.25H11.7067C11.3053 17.25 9.21549 17.117 7.36239 15.2657C5.09168 12.9992 3.05228 8.45249 3.03248 8.41241C2.90558 8.11822 3.17198 7.95791 3.45998 7.95791H6.05738C6.40568 7.95791 6.51908 8.15745 6.59828 8.33652C6.69008 8.54202 7.03029 9.36405 7.58829 10.2875C8.49189 11.79 9.04719 12.4014 9.49089 12.4014C9.57425 12.4017 9.6562 12.3811 9.72849 12.3417C10.3081 12.0399 10.2001 10.0786 10.1731 9.67444C10.1731 9.59599 10.1722 8.79869 9.87519 8.41326C9.66279 8.13698 9.30099 8.02954 9.08229 7.99031C9.14079 7.91016 9.26499 7.78737 9.42429 7.71489C9.82119 7.52729 10.5385 7.5 11.2504 7.5H11.6455C12.4177 7.51023 12.6175 7.55713 12.8983 7.6245C13.4635 7.75241 13.4743 8.09946 13.4248 9.28133C13.4104 9.61901 13.3951 9.99932 13.3951 10.447C13.3951 10.5425 13.3906 10.6491 13.3906 10.7574C13.3735 11.3637 13.351 12.0467 13.8028 12.3272C13.8614 12.3618 13.9291 12.3802 13.9981 12.3801C14.1547 12.3801 14.6236 12.3801 15.8953 10.3123C16.4533 9.39901 16.8853 8.32202 16.915 8.24101C16.9402 8.19582 17.0158 8.06876 17.1076 8.0176C17.1729 7.98468 17.246 7.96824 17.32 7.96985H20.3755C20.7085 7.96985 20.9344 8.0176 20.9785 8.13698C21.0523 8.33055 20.9641 8.92148 19.5691 10.7088C19.3342 11.0064 19.1281 11.2639 18.9472 11.489C17.6827 13.0614 17.6827 13.1407 19.0219 14.3346Z" fill="#323232"/>
</svg>
