<svg width="24" height="24" viewBox="0 0 24 24" fill="none" xmlns="http://www.w3.org/2000/svg">
<path d="M20.2984 7.0945C19.6487 6.3171 18.4491 6 16.1581 6H7.84177C5.49834 6 4.27841 6.33756 3.6311 7.16521C3 7.97217 3 9.16117 3 10.8068V13.9433C3 17.1313 3.7488 18.75 7.84177 18.75H16.1581C18.1449 18.75 19.2458 18.4702 19.958 17.7841C20.6884 17.0806 21 15.9319 21 13.9433V10.8068C21 9.07135 20.9512 7.87534 20.2984 7.0945ZM14.5561 12.8081L10.7797 14.7945C10.6952 14.839 10.6029 14.861 10.5107 14.861C10.4063 14.861 10.3021 14.8327 10.2099 14.7765C10.0361 14.6705 9.93006 14.481 9.93006 14.2766V10.3163C9.93006 10.1123 10.0359 9.9229 10.2092 9.81689C10.3827 9.71087 10.5984 9.70363 10.7783 9.79772L14.5547 11.7714C14.7469 11.8718 14.8675 12.0715 14.8678 12.2893C14.868 12.5073 14.7479 12.7072 14.5561 12.8081Z" fill="#323232"/>
</svg>
